{"title":"Pavitra Rista 3rd Aug.12~JamMafia{TMRG}","uid":7503791,"size":65599874,"categoryP":"video","categoryS":"tv_shows","magnet":"?xt=urn:btih:9c7b2dc2198be331105f4123cf89a27915f506e1&amp;dn=Pavitra+Rista+3rd+Aug.12%7EJamMafia%7BTMRG%7D&amp;tr=udp%3A%2F%2Ftracker.openbittorrent.com%3A80&amp;tr=udp%3A%2F%2Fopen.demonii.com%3A1337&amp;tr=udp%3A%2F%2Ftracker.coppersurfer.tk%3A6969&amp;tr=udp%3A%2F%2Fexodus.desync.com%3A6969","seeders":0,"leechers":1,"uploader":"JamMafia","files":6,"time":1344101891,"description":"Pavitra Rishta - Episode of 3rd August\n\nImdb:.http://www.imdb.com/title/tt2282359/\n\nProvided by DesiRipper\nBrought To You By JamMafia{TMRG} \n\nDetails:.\n\nFormat                                   : AVI\nFormat/Info                              : Audio Video Interleave\nFile size                                : 61.5 MiB\nDuration                                 : 20mn 47s\nOverall bit rate                         : 413 Kbps\n\nVideo\nID                                       : 0\nFormat                                   : MPEG-4 Visual\nFormat profile                           : Advanced Simple@L5\nFormat settings, BVOP                    : 2\nFormat settings, QPel                    : No\nFormat settings, GMC                     : No warppoints\nFormat settings, Matrix                  : Default (H.263)\nCodec ID                                 : XVID\nCodec ID/Hint                            : XviD\nDuration                                 : 20mn 47s\nBit rate                                 : 279 Kbps\nWidth                                    : 480 pixels\nHeight                                   : 360 pixels\nDisplay aspect ratio                     : 4:3\nFrame rate                               : 25.000 fps\nColor space                              : YUV\nChroma subsampling                       : 4:2:0\nBit depth                                : 8 bits\nScan type                                : Progressive\nCompression mode                         : Lossy\nBits/(Pixel*Frame)                       : 0.065\nStream size                              : 41.5 MiB (68%)\nWriting library                          : XviD 1.2.1 (UTC 2008-12-04)\n\nAudio\nID                                       : 1\nFormat                                   : MPEG Audio\nFormat version                           : Version 1\nFormat profile                           : Layer 3\nMode                                     : Joint stereo\nMode extension                           : MS Stereo\nCodec ID                                 : 55\nCodec ID/Hint                            : MP3\nDuration                                 : 20mn 47s\nBit rate mode                            : Constant\nBit rate                                 : 128 Kbps\nChannel(s)                               : 2 channels\nSampling rate                            : 44.1 KHz\nCompression mode                         : Lossy\nStream size                              : 19.0 MiB (31%)\nAlignment                                : Aligned on interleaves\nInterleave, duration                     : 160 ms (4.00 video frames)\nInterleave, preload duration             : 208 ms\nTitle                                    : Pavitra Rishta 3rd Aug.mp4_track_1__audio\nWriting library                          : LAME3.99r\nEncoding settings                        : -m j -V 4 -q 2 -lowpass 17 -b 128\n\n\nScreenShots:. &lt;a href=&quot;\nhttp://img708.imageshack.us/img708/2213/pavitrarishta3rdaugjamm.jpg&quot; rel=&quot;nofollow&quot; target=&quot;_NEW&quot;&gt;\nhttp://img708.imageshack.us/img708/2213/pavitrarishta3rdaugjamm.jpg&lt;/a&gt;\n\nIt takes 5 hours to encode\n\nAnd Just 5 seconds to say thank you............\n\nMovie Encoded my JamMafia\n\nJamMafia FB Page:\n\nPlzz Seed Till Bleed","torrent":{"xt":"urn:btih:9c7b2dc2198be331105f4123cf89a27915f506e1","amp;dn":"Pavitra+Rista+3rd+Aug.12%7EJamMafia%7BTMRG%7D","amp;tr":["udp%3A%2F%2Ftracker.openbittorrent.com%3A80","udp%3A%2F%2Fopen.demonii.com%3A1337","udp%3A%2F%2Ftracker.coppersurfer.tk%3A6969","udp%3A%2F%2Fexodus.desync.com%3A6969"],"infoHash":"9c7b2dc2198be331105f4123cf89a27915f506e1","infoHashBuffer":{"type":"Buffer","data":[156,123,45,194,25,139,227,49,16,95,65,35,207,137,162,121,21,245,6,225]},"announce":[],"urlList":[]}}